<?xml version="1.0" encoding="utf-8"?>
<!-- Generator: Adobe Illustrator 16.0.0, SVG Export Plug-In . SVG Version: 6.00 Build 0)  -->
<!DOCTYPE svg PUBLIC "-//W3C//DTD SVG 1.1//EN" "http://www.w3.org/Graphics/SVG/1.1/DTD/svg11.dtd">
<svg version="1.1" id="Layer_1" xmlns="http://www.w3.org/2000/svg" xmlns:xlink="http://www.w3.org/1999/xlink" x="0px" y="0px"
	 width="612px" height="792px" viewBox="0 0 612 792" enable-background="new 0 0 612 792" xml:space="preserve">
<path opacity="0.75" d="M349.714,133.714c0-24.139,19.535-43.714,43.715-43.714h173.628l0,0c7.104,0,12.841,1.175,17.896,3.319
	c3.961,2.118,9.972,5.246,14.207,9.385c0,0.068,0,0.136,0.137,0.191c8.47,8.497,11.475,19.59,12.704,30.682c0,0.055,0,0.096,0,0.137
	v174.857c0,24.18-19.535,43.714-43.714,43.714c-24.18,0-43.715-19.535-43.715-43.714v-69.26L293.159,470.588
	c-17.076,17.075-44.671,17.075-61.747,0c-17.076-17.076-17.076-44.671,0-61.747l231.276-231.412h-69.26
	C369.249,177.429,349.714,157.853,349.714,133.714L349.714,133.714z M0,221.143c0-48.291,39.138-87.428,87.429-87.428h131.143
	c24.18,0,43.714,19.576,43.714,43.714c0,24.179-19.535,43.714-43.714,43.714H87.429v393.429h393.429V483.429
	c0-24.18,19.534-43.715,43.714-43.715s43.715,19.535,43.715,43.715v131.143c0,48.223-39.207,87.429-87.429,87.429H87.429
	C39.138,702,0,662.794,0,614.571V221.143z"/>
</svg>
