<?xml version="1.0" standalone="no"?>
<!DOCTYPE svg PUBLIC "-//W3C//DTD SVG 20010904//EN"
 "http://www.w3.org/TR/2001/REC-SVG-20010904/DTD/svg10.dtd">
<svg version="1.0" xmlns="http://www.w3.org/2000/svg"
 width="260.000000pt" height="260.000000pt" viewBox="0 0 260.000000 260.000000"
 preserveAspectRatio="xMidYMid meet">
<metadata>
Created by potrace 1.11, written by Peter Selinger 2001-2013
</metadata>
<g transform="translate(0.000000,260.000000) scale(0.100000,-0.100000)"
fill="#000000" stroke="none">
<path d="M1974 2583 c2 -10 7 -27 10 -39 4 -11 8 -52 11 -91 19 -298 21 -322
54 -505 38 -208 114 -634 122 -683 5 -33 12 -71 14 -85 3 -14 7 -38 10 -55 10
-58 17 -90 22 -110 3 -11 -32 18 -78 66 -85 86 -177 155 -240 181 -126 52
-268 -13 -340 -155 -72 -141 -85 -356 -32 -522 37 -116 99 -206 183 -261 80
-54 104 -59 250 -58 117 1 146 5 217 28 45 14 104 42 132 60 43 29 51 32 56
18 17 -54 72 -85 113 -63 9 5 31 11 49 14 17 3 37 8 42 12 16 9 13 86 -4 135
-20 57 -19 86 6 121 23 33 20 43 -21 64 -21 11 -35 32 -54 83 -40 103 -129
475 -166 687 -5 28 -16 91 -25 140 -9 50 -17 101 -20 115 -2 14 -7 45 -11 70
-4 25 -8 56 -9 70 -2 14 -6 41 -10 60 -4 19 -8 44 -9 55 -2 11 -6 40 -10 65
-4 25 -9 56 -11 70 -4 23 -28 180 -41 255 -2 17 -6 41 -9 55 -6 34 -13 77 -20
125 -15 103 -6 95 -101 95 -76 0 -85 -2 -80 -17z m-75 -1504 c94 -42 235 -219
348 -436 l54 -102 -45 -26 c-103 -60 -290 -89 -380 -59 -55 19 -130 83 -155
133 -54 104 -57 247 -10 386 41 118 94 147 188 104z"/>
<path d="M643 1455 c-181 -91 -324 -404 -326 -710 -1 -146 19 -236 79 -362 57
-118 129 -196 229 -243 65 -31 77 -34 175 -34 124 -1 173 5 260 34 96 33 170
73 228 125 81 73 101 125 62 160 -20 18 -24 17 -158 -48 -158 -76 -216 -94
-292 -94 -177 0 -333 116 -396 295 -18 54 -22 82 -20 166 5 181 62 338 169
465 72 86 163 107 219 51 25 -26 29 -36 24 -63 -10 -48 -46 -79 -161 -136
-115 -57 -145 -86 -145 -137 0 -52 31 -78 84 -70 128 20 358 185 401 288 22
55 18 97 -15 154 -35 62 -85 103 -175 145 -95 45 -172 49 -242 14z"/>
</g>
</svg>
